<svg xmlns="http://www.w3.org/2000/svg" width="64" height="64" viewBox="0 0 64 64" fill="none">
  <rect width="64" height="64" rx="18" fill="url(#a)"/>
  <path d="M32 15c.8 0 1.5.5 1.8 1.3l1.9 5.2c.2.5.7.9 1.2 1l5.5 1c1.6.3 2.3 2.2 1.2 3.3l-3.8 3.7c-.4.4-.6 1-.5 1.5l.8 5.6c.2 1.6-1.4 2.8-2.8 2l-4.9-2.7c-.5-.3-1.1-.3-1.6 0l-4.9 2.7c-1.4.8-3-.4-2.8-2l.8-5.6c.1-.5-.1-1.1-.5-1.5l-3.8-3.7c-1.1-1.1-.4-3 1.2-3.3l5.5-1c.5-.1 1-.5 1.2-1l1.9-5.2c.3-.8 1-1.3 1.8-1.3Z" fill="rgba(255,255,255,0.18)"/>
  <path d="M28 18h8v10h10v8H36v10h-8V36H18v-8h10V18Z" fill="white"/>
  <circle cx="50" cy="50" r="8" fill="#9AE6B4"/>
  <path d="M47 50.5 49.3 53 54 47.8" stroke="#0F2942" stroke-width="2.5" stroke-linecap="round" stroke-linejoin="round"/>
  <defs>
    <linearGradient id="a" x1="7" y1="6" x2="56" y2="58" gradientUnits="userSpaceOnUse">
      <stop stop-color="#0F2942"/>
      <stop offset="1" stop-color="#14748B"/>
    </linearGradient>
  </defs>
</svg>
